<?xml version="1.0" standalone="no"?><!DOCTYPE svg PUBLIC "-//W3C//DTD SVG 1.1//EN" "http://www.w3.org/Graphics/SVG/1.1/DTD/svg11.dtd"><svg t="1636120918683" class="icon" viewBox="0 0 1024 1024" version="1.1" xmlns="http://www.w3.org/2000/svg" p-id="36441" xmlns:xlink="http://www.w3.org/1999/xlink" width="200" height="200"><defs><style type="text/css"></style></defs><path d="M467.61 962.509c-34.407 0-68.762-13.107-94.976-39.27l-276.48-276.48c-52.378-52.378-52.378-137.575 0-189.901L465.459 87.552a105.216 105.216 0 0 1 76.851-30.618l308.634 8.346c55.347 1.485 100.096 46.029 101.786 101.376l9.574 310.17c0.87 28.774-10.291 56.934-30.618 77.26L562.483 923.29c-26.112 26.112-60.467 39.219-94.873 39.219z m71.884-844.186c-11.417 0-22.476 4.557-30.566 12.647L139.622 500.275c-28.416 28.416-28.416 74.65 0 103.015l276.48 276.48c28.416 28.416 74.65 28.416 103.015 0L888.32 510.566a43.418 43.418 0 0 0 12.646-31.897l-9.574-310.17c-0.717-22.886-19.2-41.267-42.035-41.881l-308.634-8.346c-0.46 0.051-0.819 0.051-1.229 0.051z" fill="#424242" p-id="36442"></path><path d="M676.403 445.542c-62.208 0-112.845-50.636-112.845-112.844s50.637-112.845 112.845-112.845 112.845 50.637 112.845 112.845-50.637 112.844-112.845 112.844z m0-164.198c-28.365 0-51.405 23.04-51.405 51.405s23.04 51.405 51.405 51.405c28.365 0 51.405-23.04 51.405-51.405s-23.091-51.405-51.405-51.405z" fill="#F8B62D" p-id="36443"></path></svg>