<?xml version="1.0" standalone="no"?><!DOCTYPE svg PUBLIC "-//W3C//DTD SVG 1.1//EN" "http://www.w3.org/Graphics/SVG/1.1/DTD/svg11.dtd"><svg t="1636126969994" class="icon" viewBox="0 0 1024 1024" version="1.1" xmlns="http://www.w3.org/2000/svg" p-id="57338" xmlns:xlink="http://www.w3.org/1999/xlink" width="200" height="200"><defs><style type="text/css"></style></defs><path d="M512 0C229.216 0 0 229.216 0 512s229.216 512 512 512 512-229.216 512-512S794.784 0 512 0z m0 960C264.96 960 64 759.04 64 512S264.96 64 512 64s448 200.96 448 448-200.96 448-448 448z" p-id="57339"></path><path d="M800 463.2h-256.608v-64h192a32 32 0 1 0 0-64h-145.344l105.184-105.184a31.968 31.968 0 1 0-45.248-45.248l-138.56 138.56-138.56-138.56a31.968 31.968 0 1 0-45.248 45.248l105.184 105.184H287.392a32 32 0 1 0 0 64h192v64H224a32 32 0 1 0 0 64h255.392v289.376a32 32 0 1 0 64 0v-289.376H800a32 32 0 1 0 0-64z" p-id="57340"></path></svg>