<?xml version="1.0" standalone="no"?><!DOCTYPE svg PUBLIC "-//W3C//DTD SVG 1.1//EN" "http://www.w3.org/Graphics/SVG/1.1/DTD/svg11.dtd"><svg t="1636126974551" class="icon" viewBox="0 0 1024 1024" version="1.1" xmlns="http://www.w3.org/2000/svg" p-id="57485" xmlns:xlink="http://www.w3.org/1999/xlink" width="200" height="200"><defs><style type="text/css"></style></defs><path d="M1024 39.84H0v64h64v704h380.8L313.76 938.88l45.248 45.248L512 831.168l153.024 152.992 45.248-45.248-131.072-131.072H960v-704h64z m-128 704H128v-640h768z" fill="#575869" p-id="57486"></path><path d="M218.656 569.44a31.904 31.904 0 0 0 22.624-9.376l165.568-165.568 125.248 125.28 0.064 0.032 0.032 0.064a32 32 0 0 0 45.248 0l250.528-250.496a32 32 0 0 0-45.248-45.248l-227.904 227.84-124.896-124.896c-0.16-0.16-0.192-0.384-0.352-0.544a32 32 0 0 0-45.248 0l-188.288 188.288a32 32 0 0 0 22.624 54.624z" fill="#575869" p-id="57487"></path></svg>